<svg version="1.1" xmlns="http://www.w3.org/2000/svg" xmlns:xlink="http://www.w3.org/1999/xlink" x="0px" y="0px" viewBox="0 0 1000 1000" enable-background="new 0 0 1000 1000" xml:space="preserve">
<g><g transform="translate(0.000000,511.000000) scale(0.100000,-0.100000)"><path d="M8103.1,4651.9c0-24.9-105.4-28.7-841.1-28.7h-839.1l-13.4-109.2c-21.1-187.8-105.4-569-185.8-843c-239.5-820-643.7-1551.8-1107.4-2007.8l-116.9-113l-116.9,113c-463.6,456-869.8,1191.7-1107.4,2005.9c-80.5,275.9-164.8,657.1-185.8,844.9l-13.4,109.2h-910h-910L1616,4479.5c-233.7-241.4-722.3-867.9-1279.8-1643.8C165.7,2600,92.9,2483.1,100.5,2458.2c5.8-21.1,229.9-346.8,502-726.1l490.5-689.7l479,410c264.4,226.1,484.7,411.9,492.4,411.9c7.7,0,134.1-657.1,281.6-1461.8l268.2-1459.9v-699.3c-1.9-720.4-19.2-996.2-107.3-1685.9c-36.4-289.3-116.9-829.6-143.7-952.2l-11.5-63.2h2647.7h2647.7l-11.5,53.6c-49.8,245.2-134.1,841.1-182,1287.5c-63.2,578.6-82.4,994.3-74.7,1542.3l5.7,517.3l268.2,1459.9c147.5,804.7,274,1461.8,281.6,1461.8c7.6,0,228-185.8,492.4-411.9l479-410l490.5,687.8c270.1,379.3,494.3,703.1,500,716.5c15.3,38.3-7.7,76.6-258.6,423.4c-737.6,1025-1222.3,1624.6-1412,1745.4C8110.8,4690.2,8103.1,4692.1,8103.1,4651.9z"/></g></g>
</svg>