<svg version="1.1" xmlns="http://www.w3.org/2000/svg" xmlns:xlink="http://www.w3.org/1999/xlink" x="0px" y="0px" viewBox="0 0 1000 1000" enable-background="new 0 0 1000 1000" xml:space="preserve">
<g><g transform="translate(0.000000,512.000000) scale(0.100000,-0.100000)"><path d="M4443.4,4966.4c-90-59.3-239.3-212.5-411.5-426.8c-59.3-72.7-126.3-135.9-149.3-141.6c-21.1-3.8-227.8-34.4-457.5-67c-227.8-32.5-451.7-70.8-493.8-86.1c-319.6-112.9-580-384.7-666.1-689.1c-11.5-42.1-63.2-317.7-116.8-612.5c-379-2134.2-612.5-3860.7-612.5-4530.6c0-201,1.9-208.6,55.5-268l55.5-63.2l442.2-5.7c243.1-3.8,442.1-11.5,442.1-19.1c0-7.7-44-516.8-93.8-1133.1c-57.4-681.4-88.1-1135-78.5-1159.9c36.4-91.9,93.8-118.7,426.8-199.1c882.4-214.4,1722.7-344.5,2214.6-344.5c493.8,0,1318.8,128.2,2222.2,346.4c323.5,78.5,384.7,105.3,419.2,197.2c9.6,24.9-21,472.8-78.5,1150.4c-51.7,610.6-93.8,1121.6-93.8,1135c0,17.2,93.8,23,402,23c610.6,0,604.8-3.8,587.6,484.3c-30.6,809.6-281.4,2601.2-654.6,4645.4c-84.2,465.1-147.4,612.5-342.6,800.1c-225.9,218.2-361.7,262.2-1108.2,359.8l-266.1,34.5l-126.3,155c-191.4,233.5-310.1,354.1-403.9,415.4l-86.1,53.6h-470.8h-470.9L4443.4,4966.4z M5387.1,4585.5c45.9-42.1,44-114.8-13.4-331.1c-74.7-281.4-444.1-1339.8-505.3-1450.9c-15.3-26.8-93.8,296.7-191.4,802c-126.3,648.9-145.5,876.6-76.6,962.8l38.3,49.8h356C5299,4618,5356.4,4614.2,5387.1,4585.5z M5970.8,3867.7c103.3-137.8,185.7-258.4,181.8-268c-5.7-21-911.1-1027.9-918.8-1022.1c-1.9,3.8,51.7,155,122.5,338.8c135.9,361.8,333.1,941.7,373.2,1104.4c13.4,53.6,30.6,99.5,38.3,99.5C5775.6,4120.4,5867.5,4007.5,5970.8,3867.7z M4213.7,3850.5c13.4-90,57.4-323.5,97.6-516.8c40.2-193.3,70.8-354.1,67-357.9c-1.9-3.8-126.3,135.9-275.6,310.1l-271.8,317.7l164.6,222c91.9,122.5,172.3,214.4,179.9,206.7C4185,4022.8,4202.2,3940.5,4213.7,3850.5z M3469.2,3798.8c-78.5-107.2-95.7-145.5-95.7-210.5c0-76.6,21.1-105.3,595.3-773.3c327.3-382.8,599.1-706.3,604.8-719.7c5.7-13.4-30.6-120.6-82.3-239.3l-93.8-214.4l-5.7-2982.1c-3.8-2842.4-5.7-2980.2-38.3-2980.2c-112.9,0-920.7,151.2-1383.9,260.3l-204.8,47.9l7.7,70.8c5.7,38.3,47.9,535.9,95.7,1104.4c103.4,1249.9,80.4,1020.2,312,3223.3c172.3,1628.9,187.6,1812.6,162.7,1860.5c-63.2,124.4-212.5,151.2-315.8,59.3l-59.3-53.6L2768.6,378.4c-109.1-1031.7-197.1-1877.7-199.1-1879.6c0-3.8-141.6-5.7-315.8-5.7h-315.8l11.5,139.7c47.9,629.7,126.3,1290.1,248.8,2099.7c155,1041.3,428.7,2616.5,478.5,2760.1c40.2,122.5,176.1,269.9,300.5,329.2c91.9,42.1,373.2,99.5,524.5,105.3l63.2,1.9L3469.2,3798.8z M6717.3,3898.4c124.4-17.2,246.9-49.8,306.3-76.6c124.4-59.3,260.3-208.6,300.5-329.2c57.4-172.3,382.8-2082.5,526.4-3095c82.3-574.2,164.6-1270.9,183.7-1550.4c5.8-93.8,15.3-212.5,21-262.2l11.5-91.9h-315.8h-317.7l-11.5,82.3c-5.7,44-95.7,890-199.1,1879.6l-189.5,1797.3l-59.3,53.6c-105.3,93.8-279.5,55.5-327.3-72.7c-11.5-28.7,36.4-551.2,143.5-1581c243.1-2289.2,250.7-2371.5,342.6-3489.3c47.8-568.5,89.9-1066.1,95.7-1104.4l7.6-70.8l-214.4-49.8c-847.9-201-1877.7-348.4-2145.7-306.3l-86.1,11.5v2909.4v2907.5l63.2,70.8c65.1,72.7,1565.7,1745.6,1701.6,1894.9c112.9,126.3,103.3,199.1-45.9,403.9C6420.6,3946.2,6411.1,3944.3,6717.3,3898.4z"/><path d="M3228-1782.6c-45.9-45.9-65.1-82.3-65.1-124.4c0-124.4,42.1-164.6,308.2-298.6c137.8-68.9,271.8-124.4,300.5-124.4c80.4,0,168.4,65.1,195.2,141.6c19.1,59.3,17.2,80.4-13.4,141.6c-30.6,61.3-67,88.1-283.3,199.1C3375.4-1694.5,3323.7-1686.9,3228-1782.6z"/><path d="M5333.5,923.9c-67-26.8-122.5-112.9-122.5-191.4c0-143.6,143.5-239.3,273.7-183.8c70.8,28.7,128.3,112.9,128.3,183.8c0,70.8-57.4,155-124.4,183.8C5413.8,946.9,5390.9,946.9,5333.5,923.9z"/><path d="M5333.5-301.1c-67-26.8-122.5-112.9-122.5-191.4c0-143.6,143.5-239.3,273.7-183.7c70.8,28.7,128.3,112.9,128.3,183.7c0,70.8-57.4,155-124.4,183.8C5413.8-278.1,5390.9-278.1,5333.5-301.1z"/><path d="M6168-1824.7c-225.9-57.4-432.6-114.8-455.5-126.3c-57.4-28.7-99.5-111-99.5-189.5c0-76.6,107.2-189.5,179.9-189.5c59.3,0,867.1,199.1,936,231.6c59.3,26.8,109.1,112.9,109.1,189.5c0,88-107.2,191.4-193.3,189.5C6608.2-1719.4,6393.8-1767.3,6168-1824.7z"/></g></g>
</svg>