<svg version="1.1" xmlns="http://www.w3.org/2000/svg" xmlns:xlink="http://www.w3.org/1999/xlink" x="0px" y="0px" viewBox="0 0 1000 1000" enable-background="new 0 0 1000 1000" xml:space="preserve">
<g><path d="M220.5,934.5c-8.7,0-15.8-7.1-15.8-15.8v-91.1c0-44,20-119.2,43.1-206.3c25.1-94.7,53.6-202.1,53.6-267.9c0-121-78.5-313.2-79.3-315.2c-2.2-5.4-1.3-11.6,2.5-16.2c3.8-4.5,9.7-6.6,15.4-5.4c0.6,0.1,57.8,11.8,98-5.4c6.5-2.8,14.1-0.9,18.6,4.7c0.8,1,78.5,96.9,145.8,96.9c8.7,0,15.8,7.1,15.8,15.8c0,8.8-7.1,15.8-15.8,15.8c-69.5,0-140.3-74-163.1-100c-27.2,8.6-57,8.6-78,6.9c21.8,57.6,71.7,200.3,71.7,301.9c0,69.9-27.8,174.7-54.7,276c-21.6,81.4-42,158.4-42,198.2v91.1C236.4,927.5,229.3,934.5,220.5,934.5z"/><path d="M779.5,934.5c-8.8,0-15.8-7.1-15.8-15.8v-91.1c0-39.8-20.4-116.8-42-198.2c-26.9-101.3-54.7-206.1-54.7-276c0-101.6,49.9-244.4,71.7-301.9c-21,1.7-50.6,1.7-77.7-6.8c-22,26.5-89,99.9-158.4,99.9c-8.8,0-15.8-7.1-15.8-15.8c0-8.8,7.1-15.8,15.8-15.8c55.7,0,120.3-69.7,140.4-96.5c4.4-5.8,12.2-7.9,18.9-5.1c40.3,17.2,97.5,5.5,98,5.4c5.8-1.2,11.7,0.9,15.4,5.4c3.8,4.5,4.7,10.7,2.5,16.2c-0.8,1.9-79.3,194.1-79.3,315.2c0,65.8,28.5,173.2,53.6,267.9c23.1,87.1,43.1,162.3,43.1,206.3v91.1C795.3,927.5,788.2,934.5,779.5,934.5z"/><path d="M500,511.9c-67.5,0-135.1-25.7-186.5-77.1c-3.1-3.1-3.1-8.1,0-11.2c3.1-3.1,8.1-3.1,11.2,0c96.7,96.6,254,96.7,350.6,0c3.1-3.1,8.1-3.1,11.2,0c3.1,3.1,3.1,8.1,0,11.2C635,486.1,567.5,511.9,500,511.9z"/><path d="M276,990c-39.3,0-71.3-32-71.3-71.3c0-8.8,7.1-15.8,15.8-15.8s15.8,7.1,15.8,15.8c0,21.8,17.8,39.6,39.6,39.6s39.6-17.8,39.6-39.6c0-8.8,7.1-15.8,15.8-15.8c8.7,0,15.8,7.1,15.8,15.8C347.3,958,315.3,990,276,990z"/><path d="M386.9,990c-39.3,0-71.3-32-71.3-71.3c0-8.8,7.1-15.8,15.8-15.8c8.7,0,15.8,7.1,15.8,15.8c0,21.8,17.8,39.6,39.6,39.6c21.8,0,39.6-17.8,39.6-39.6c0-8.8,7.1-15.8,15.8-15.8c8.7,0,15.8,7.1,15.8,15.8C458.2,958,426.2,990,386.9,990z"/><path d="M502.2,990c-39.3,0-71.3-32-71.3-71.3c0-8.8,7.1-15.8,15.8-15.8c8.8,0,15.8,7.1,15.8,15.8c0,21.8,17.8,39.6,39.6,39.6c21.8,0,39.6-17.8,39.6-39.6c0-8.8,7.1-15.8,15.8-15.8s15.8,7.1,15.8,15.8C573.5,958,541.5,990,502.2,990z"/><path d="M613.1,990c-39.3,0-71.3-32-71.3-71.3c0-8.8,7.1-15.8,15.8-15.8s15.8,7.1,15.8,15.8c0,21.8,17.8,39.6,39.6,39.6s39.6-17.8,39.6-39.6c0-8.8,7.1-15.8,15.8-15.8s15.8,7.1,15.8,15.8C684.4,958,652.4,990,613.1,990z"/><path d="M724,990c-39.3,0-71.3-32-71.3-71.3c0-8.8,7.1-15.8,15.8-15.8s15.8,7.1,15.8,15.8c0,21.8,17.8,39.6,39.6,39.6c21.8,0,39.6-17.8,39.6-39.6c0-8.8,7.1-15.8,15.8-15.8s15.8,7.1,15.8,15.8C795.3,958,763.3,990,724,990z"/></g>
</svg>