<svg version="1.1" xmlns="http://www.w3.org/2000/svg" xmlns:xlink="http://www.w3.org/1999/xlink" x="0px" y="0px" viewBox="0 0 1000 1000" enable-background="new 0 0 1000 1000" xml:space="preserve">
<g><g transform="translate(0.000000,512.000000) scale(0.100000,-0.100000)"><path d="M4626.6,5010.7c-632-53.6-1214.2-214.5-1781.1-492.2c-499.9-245.1-856.1-497.9-1262.1-890.5c-417.5-407.9-722-827.4-980.6-1352.1C283,1622.8,129.8,1009.9,103,284.1C55.1-1104.4,589.4-2422,1602.5-3402.6c1375.1-1332.9,3393.7-1739,5178.6-1041.9c1264,494.1,2290.5,1522.5,2788.5,2794.2c203,522.8,306.4,1024.6,327.5,1608.7c38.3,1118.4-302.6,2198.6-980.6,3102.5C7983.8,4304,6497.7,5039.4,4961.7,5020.3C4820,5018.4,4668.7,5014.5,4626.6,5010.7z M5641.6,4671.7c994-147.5,1907.5-605.2,2606.5-1306.1c722-725.8,1156.8-1604.9,1311.9-2660.2c38.3-258.5,34.5-959.5-9.6-1231.5c-124.5-798.6-442.4-1549.4-907.8-2145c-155.1-199.2-440.5-520.9-463.5-520.9c-7.7,0-86.2,44-174.3,97.7c-203,122.6-620.5,331.3-1049.5,524.8c-720.1,325.6-900.1,496-969.1,911.6c-36.4,224.1-38.3,457.7-3.8,457.7c11.5,0,101.5-13.4,195.3-32.6c103.4-19.2,277.7-30.6,440.5-32.5c291.1,0,386.9,17.2,672.2,124.5l157.1,59.4l-93.8,124.5c-124.5,162.8-170.5,256.6-254.7,519C6968.8-35.8,6951.6,129,6934.3,1021.4c-13.4,695.2-21.1,815.9-53.6,957.6c-136,580.3-362,919.3-812,1223.8c-289.2,195.4-693.3,262.4-972.9,164.7c-78.5-26.8-93.8-26.8-247,11.5c-373.5,93.8-722-7.7-1118.5-325.6c-298.8-241.3-496-588-610.9-1074.4c-32.5-141.7-40.2-266.2-53.6-957.6c-9.6-436.7-24.9-850.3-36.4-919.3c-42.1-243.2-84.3-413.7-149.4-603.3c-82.3-237.5-114.9-300.7-233.6-455.8l-93.8-124.5l157-59.4c285.4-107.2,381.1-124.5,672.2-124.5c162.8,1.9,337.1,13.4,440.5,32.5c95.8,19.2,183.9,32.6,197.3,32.6c32.6,0,30.6-208.8-3.8-436.7c-65.1-432.8-245.1-605.2-971-932.7c-429-193.4-846.5-402.2-1049.5-524.8c-88.1-53.6-168.5-97.7-176.2-97.7c-24.9,0-360,383-505.6,576.5C428.5-1431.9,171.9,119.4,625.8,1525.1C1083.5,2938.5,2184.7,4037.8,3600,4495.5c321.8,105.3,593.7,159,1055.3,210.7C4795.1,4721.5,5457.8,4698.5,5641.6,4671.7z"/></g></g>
</svg>