<svg version="1.1" xmlns="http://www.w3.org/2000/svg" xmlns:xlink="http://www.w3.org/1999/xlink" x="0px" y="0px" viewBox="0 0 1000 1000" enable-background="new 0 0 1000 1000" xml:space="preserve">
<g><g transform="translate(0.000000,512.000000) scale(0.100000,-0.100000)"><path d="M4646.3,4997c-1147.1-156.8-2070.5-952.1-2389.8-2055.2c-66.9-233.2-101.3-464.6-114.7-791.5c-28.7-678.7-248.5-1565.8-525.8-2131.7c-61.2-126.2-147.2-271.5-189.3-321.2c-89.9-109-105.1-147.2-89.9-233.2c17.2-86,122.4-175.9,334.6-284.9c357.5-183.5,881.4-328.8,1604-441.6l292.5-45.9l139.6-112.8c189.3-152.9,393.8-277.2,567.8-346c694-277.2,1382.2-160.6,2007.4,338.4l149.1,120.5l292.5,45.9c910,143.4,1594.4,365.1,1846.8,598.4c130,120.4,130,208.4,1.9,359.4c-162.5,195-403.4,776.2-533.4,1286.7c-112.8,443.5-156.8,741.8-191.2,1286.7c-21,346-53.5,520-143.4,791.5c-151,455-403.4,846.9-759,1181.5c-386.2,363.3-852.7,608-1382.2,718.8C5342.2,5006.5,4858.5,5025.7,4646.3,4997z M5481.8,4559.2c967.4-196.9,1718.7-950.2,1917.6-1921.4c38.2-187.4,55.4-552.5,34.4-707.4l-17.2-114.7l-112.8,5.7c-304,11.5-831.6,156.8-1242.7,342.2c-575.5,258.1-1212.1,692.1-1625.1,1105c-160.6,160.6-221.8,250.5-279.1,407.2c-45.9,128.1-210.3,158.7-311.6,57.4c-59.3-59.3-63.1-74.6-74.6-235.1c-30.6-416.8-216-793.4-558.3-1128c-145.3-141.5-380.5-321.2-543-414.9l-95.6-55.4l-13.4,89.9c-19.1,126.2,1.9,464.6,40.1,648.1c99.4,479.9,317.4,887.1,659.6,1235c261.9,265.7,504.7,428.2,837.4,560.2C4539.2,4610.8,5017.2,4652.9,5481.8,4559.2z M4575.6,2591.9c835.5-669.1,1906.1-1128,2774.1-1191.1c59.3-5.7,68.8-13.4,84.1-72.6c45.9-172.1-28.7-613.7-122.3-732.2c-36.3-47.8-45.9-49.7-149.1-40.2c-103.2,11.5-114.7,9.6-170.1-42.1c-44-42.1-68.8-97.5-109-237.1c-189.3-688.2-627.1-1298.1-1129.9-1579.2c-416.7-233.2-902.4-263.8-1334.4-84.1C3864.4-1155.3,3386.4-570.3,3153.2,162c-38.2,120.4-78.4,244.7-89.9,275.3c-36.3,99.4-187.4,156.8-281,107.1c-51.6-28.7-124.3,68.8-175.9,235.2c-34.4,109-44,183.5-44,357.5c0,120.4,5.7,240.9,13.4,267.7c11.5,36.3,59.3,70.7,191.2,139.6c265.7,137.7,516.2,323.1,751.3,558.3c271.5,271.5,409.1,479.9,562.1,856.5l21,53.5l177.8-162.5C4374.8,2760.1,4508.7,2643.5,4575.6,2591.9z M2304.3,448.8c61.2-118.5,172.1-231.3,277.2-279.1c53.5-24.8,109-45.9,126.2-45.9c19.1,0,40.2-38.2,63.1-110.9c49.7-166.3,202.7-508.5,305.9-680.6c47.8-82.2,86-154.9,82.2-158.7c-15.3-13.4-644.3,128.1-868,196.9c-120.4,36.3-273.4,91.8-340.3,120.4l-122.4,55.4l84.1,147.2c87.9,154.9,248.5,533.4,307.8,722.7c19.1,59.3,36.3,109,40.2,109C2262.3,525.2,2283.3,490.8,2304.3,448.8z M7940.4-10.1c34.4-80.3,99.4-210.3,145.3-292.5l84.1-147.2l-55.4-28.7c-99.4-51.6-361.3-143.4-579.3-200.7c-231.3-61.2-682.5-156.8-694-147.2c-3.8,3.8,38.2,84.1,91.8,177.8c114.7,200.7,223.7,439.7,286.8,634.7c28.7,91.8,53.5,137.7,72.7,137.7c17.2,0,74.6,21,126.2,45.9c107.1,49.7,216,160.6,279.1,283l42.1,80.3l70.7-198.8C7848.6,223.2,7907.9,68.3,7940.4-10.1z"/><path d="M3841.4,1282.3c-72.6-72.7-84.1-147.2-38.2-239c44-82.2,103.2-97.5,391.9-97.5c233.2,0,269.6,3.8,311.6,38.2c114.7,89.9,109,254.3-11.5,326.9c-51.6,30.6-97.5,36.3-323.1,36.3h-265.7L3841.4,1282.3z"/><path d="M5504.7,1311c-68.8-42.1-110.9-143.4-91.7-219.9c5.7-26.8,38.2-70.7,68.8-97.5c53.5-45.9,66.9-47.8,321.2-47.8c288.7,0,340.3,13.4,388.1,95.6c53.5,87.9,42.1,166.3-32.5,240.9l-65,65h-263.8C5602.2,1347.3,5556.3,1341.6,5504.7,1311z"/><path d="M2352.1-1598.8c-326.9-114.7-663.4-242.8-749.4-282.9c-265.7-128.1-478-281-713.1-518.1C576-2711.5,381-3023.1,251-3413.1c-105.1-319.3-128.1-453.1-139.6-854.6L100-4634.8l68.8-68.8l66.9-66.9H5000h4764.3l66.9,66.9l68.8,68.8l-11.5,367.1c-9.6,296.3-19.1,405.3-57.4,567.8c-128.1,535.3-344.1,927.2-728.4,1309.6c-233.2,233.2-420.6,367.1-709.3,506.6c-214.1,103.2-1332.5,497.1-1412.8,497.1c-36.3,0-95.6-42.1-227.5-166.3c-409.1-384.3-759-585-1229.3-705.4c-183.5-47.8-244.7-53.5-504.7-55.4c-424.4,0-674.9,57.4-1061.1,248.5c-242.8,120.4-462.7,277.2-711.2,512.3c-151,141.5-187.4,166.3-239,164.4C2973.5-1388.5,2679-1484.1,2352.1-1598.8z M3109.2-1979.2c407.2-359.4,864.1-592.7,1374.6-701.7c229.4-47.8,803-47.8,1032.4,0c506.6,109,969.3,344.1,1370.8,699.7l174,152.9l523.8-183.5c286.8-99.4,598.4-221.8,694-269.6c546.8-281,967.4-804.9,1126.1-1397.5c49.7-183.5,101.3-608,82.2-659.6c-11.5-28.7-435.9-30.6-4487.1-30.6c-4022.5,0-4475.6,3.8-4487.1,28.7c-5.7,17.2,0,131.9,11.5,254.2c76.5,803,531.5,1475.9,1231.2,1820.1c141.5,68.8,873.7,342.2,1175.8,437.8C2933.3-1826.3,3013.6-1895.1,3109.2-1979.2z"/></g></g>
</svg>