<svg version="1.1" xmlns="http://www.w3.org/2000/svg" xmlns:xlink="http://www.w3.org/1999/xlink" x="0px" y="0px" viewBox="0 0 1000 1000" enable-background="new 0 0 1000 1000" xml:space="preserve">
<g><g transform="translate(0.000000,512.000000) scale(0.100000,-0.100000)"><path d="M2168.8,4664.1c-594.1-199.3-1082.8-366.1-1084.7-368c-3.8-3.8-224.2-795.4-488.7-1759.4l-483-1753.6L102.8,304C83.6-539.3,166-2016.9,290.6-3149.6l23-197.4h762.8H1841v120.7c0,65.2-21.1,672.7-47.9,1349.2l-46,1230.4l55.6,327.7c105.4,611.4,262.6,1266.8,389,1638.6c46,132.2,47.9,134.2,59.4,67.1c17.3-105.4,145.7-1985.5,145.7-2146.5c0-366.1-197.4-1554.3-460-2786.6c-88.2-410.1-92-440.8-61.3-463.8c74.8-57.5,458.1-266.4,668.9-366.1c262.5-122.6,672.7-285.5,906.5-358.4l162.9-51.7l161,168.7c187.8,197.4,414,471.4,555.8,678.4l101.6,145.7l295.1,15.3c161,5.7,419.7,5.7,571.1,0l277.9-15.3l86.2-128.4c120.8-184,362.2-479.1,559.6-688l170.6-178.2l260.6,88.2c333.5,111.2,745.5,285.5,1050.3,446.5c187.8,97.7,419.7,231.9,458,264.5c1.9,1.9-17.2,97.7-42.2,212.7c-145.7,644-352.6,1744-442.7,2345.8c-80.5,538.5-80.5,642-1.9,1772.8c40.2,559.6,76.7,1036.8,82.4,1063.7c7.7,40.3,17.2,24.9,57.5-86.2C7941.3,949.9,8106.1,259.9,8202-297.8l57.5-331.5l-47.9-1230.4c-24.9-674.6-46-1286-46-1356.9V-3347h766.6c613.3,0,766.6,5.7,766.6,24.9c0,13.4,17.3,187.8,38.3,389.1c109.3,1069.4,161,1983.6,161,2920.8L9900,764l-486.8,1767l-486.8,1767l-1094.3,366.1l-1094.3,364.1l-1744-1.9l-1744-1.9L2168.8,4664.1z M6515.4,4781c-15.3-19.2-82.4-101.6-151.4-180.2l-124.6-145.7l-1236.2-1.9H3767.1l-80.5,101.6c-44.1,55.6-111.2,130.3-149.5,166.7c-36.4,36.4-67.1,72.8-67.1,80.5c0,7.7,691.9,15.3,1535.1,15.3C6502,4817.4,6540.3,4817.4,6515.4,4781z M3207.5,4633.4c47.9-178.2,65.2-709.1,32.6-1027.3c-11.5-130.3-23-256.8-24.9-281.7c-3.8-44.1,5.7-47.9,197.4-84.3c111.2-21.1,203.1-40.2,207-42.2c1.9-1.9-17.3-65.2-46-141.8c-44.1-118.8-47.9-141.8-24.9-172.5c15.3-19.2,101.6-134.2,191.7-253c644-845.2,1071.3-1646.3,1149.9-2142.7c13.4-88.2,17.3-548.1,11.5-1385.6c-5.8-1199.7-7.7-1259.1-47.9-1437.4c-65.2-289.4-149.5-519.4-300.9-829.8c-208.9-425.5-523.2-877.8-885.4-1272.6l-111.2-120.7l-153.3,51.8c-300.9,103.5-676.5,264.5-987,423.5c-174.4,90.1-322,170.6-329.6,178.3c-9.6,7.7,32.6,237.6,90.1,509.8c189.7,914.2,341.1,1784.3,402.5,2347.7l32.6,277.9l-107.3,1514c-59.4,833.7-113.1,1542.8-118.8,1577.3c-9.6,65.2-15.3,67.1-128.4,47.9l-72.8-11.5l13.4-212.7c11.5-205.1,9.6-218.5-40.2-337.3c-230-540.5-567.3-1912.7-598-2434c-5.7-90.1,9.6-634.4,30.7-1209.3c23-576.9,40.3-1109.7,40.3-1184.4v-136.1h-563.5H503.3l-11.5,51.8c-17.2,82.4-101.6,1056-138,1567.7c-17.2,270.2-34.5,829.8-40.2,1360.7L304,725.6l469.5,1701.9c258.7,937.2,473.4,1705.7,477.2,1709.5c17.2,15.3,1885.8,638.2,1903.1,634.4C3165.4,4769.5,3188.3,4706.2,3207.5,4633.4z M7803.3,4460.9c521.3-174.4,948.7-320.1,952.5-323.9c3.8-3.8,216.6-772.3,475.3-1707.6l467.6-1699.9V54.8c0-689.9-17.2-1148-67.1-1859c-34.5-475.3-101.6-1222.7-116.9-1297.5l-11.5-53.7h-563.4h-563.5v139.9c0,74.8,17.2,621,40.2,1211.2c21.1,590.3,34.5,1138.4,28.8,1217c-11.5,161-97.7,643.9-185.9,1034.9c-109.2,494.5-266.4,1015.8-394.8,1320.5l-69,159.1l13.4,218.5c9.6,172.5,7.7,218.5-11.5,218.5c-13.4,0-57.5,5.7-95.8,11.5c-67.1,11.5-70.9,9.6-80.5-51.7c-5.7-36.4-59.4-741.7-118.8-1569.6c-95.8-1372.2-103.5-1523.6-84.3-1724.9c46-498.3,210.8-1462.3,412.1-2422.5c97.7-465.7,103.5-498.3,70.9-521.3c-17.3-13.4-166.7-93.9-329.6-178.2c-318.1-162.9-621-293.2-929.5-398.6l-191.7-65.2l-130.3,139.9c-341.2,366.1-657.4,824.1-866.3,1251.5c-153.3,312.4-233.8,536.6-299,827.9c-42.1,180.2-44.1,235.7-49.8,1439.3c-5.8,837.5-1.9,1297.5,11.5,1385.6c78.6,500.2,479.1,1247.7,1148,2140.7l218.5,293.2l-49.8,134.2c-26.8,74.7-49.8,136.1-49.8,139.9c0,1.9,86.3,21.1,189.7,40.2c105.4,19.2,201.2,40.2,210.8,47.9c13.4,7.7,13.4,49.8-1.9,134.2c-30.7,170.6-32.6,1034.9-1.9,1159.5c24.9,107.3,57.5,201.2,70.9,201.2C6854.6,4779.1,7283.9,4635.3,7803.3,4460.9z M3577.4,4361.3c483-613.3,883.5-1456.6,1148-2416.7c74.7-274.1,184-772.4,172.5-785.8c-5.7-3.8-30.7,42.2-57.5,101.6c-139.9,316.2-573,1010-910.3,1456.6c-86.2,115-161,218.5-164.8,231.9c-5.7,11.5,21.1,105.4,59.4,208.9c38.3,103.5,65.2,191.7,63.2,193.6c-3.8,1.9-107.3,23-233.8,47.9l-226.1,44.1l11.5,84.3c23,168.7,32.6,670.8,17.3,826c-9.6,86.2-13.4,157.2-7.7,157.2C3456.7,4510.7,3512.3,4443.7,3577.4,4361.3z M6549.9,4353.6c-15.3-155.2-5.7-657.4,17.2-826l11.5-84.3l-226.1-44.1c-126.5-24.9-230-46-233.8-47.9c-1.9-1.9,24.9-90.1,63.2-193.6s65.2-197.4,59.4-210.8c-3.8-11.5-84.3-124.6-180.1-249.1c-323.9-433.1-617.1-893.1-822.2-1291.7c-69-132.2-126.5-241.5-130.3-245.3c-11.5-11.5,51.7,299,107.3,532.8c205.1,839.4,567.3,1715.3,952.5,2299.8c164.8,249.1,364.1,517.5,387.1,517.5C6561.4,4510.7,6559.5,4439.8,6549.9,4353.6z M6040.1,4181.1c-415.9-630.5-808.8-1550.5-992.7-2319c-19.2-82.4-38.3-149.5-44.1-149.5s-30.7,84.3-55.6,187.8c-187.8,766.6-569.2,1654-981.3,2280.7l-40.2,61.3h1077.1h1077.1L6040.1,4181.1z M5080-2804.6c36.4-113.1,126.5-325.8,201.2-475.3c72.8-147.6,136.1-274,139.9-281.7c3.8-9.6-184-15.3-415.9-15.3c-233.8,0-423.5,3.8-423.5,7.7c0,5.7,46,97.7,103.5,207c111.2,210.8,245.3,532.8,281.7,676.5c11.5,47.9,26.8,86.3,34.5,86.3C5007.1-2599.5,5043.5-2693.5,5080-2804.6z"/><path d="M2872.1-1930.7c-53.7-30.7-46-147.6,9.6-170.6c132.2-57.5,1040.7-323.9,1071.3-314.3c47.9,15.3,78.6,95.8,53.7,141.8c-13.4,24.9-93.9,59.4-245.3,105.4c-122.7,38.3-360.3,113.1-527,164.8C2899-1900,2918.1-1903.8,2872.1-1930.7z"/><path d="M5530.3,62.5c-118.8-69-141.8-212.8-49.8-306.6c40.3-40.3,74.8-55.6,122.7-55.6c82.4,0,176.3,72.8,191.7,147.6c11.5,59.4-23,155.2-69,193.6C5683.7,75.9,5576.3,87.4,5530.3,62.5z"/><path d="M5516.9-865.1c-157.1-88.2-109.2-323.9,72.8-348.8c141.8-19.2,247.2,120.7,191.6,253c-13.4,30.7-38.3,69-55.6,82.4C5679.8-840.2,5574.4-832.5,5516.9-865.1z"/><path d="M6737.7-2013.1c-178.2-57.5-414-130.3-523.2-162.9c-155.2-47.9-201.2-70.9-218.5-105.4c-23-53.7,3.8-118.8,57.5-134.1c30.7-9.6,942.9,256.8,1073.3,314.3c82.4,36.4,42.2,195.5-47.9,191.6C7071.2-1911.5,6917.9-1957.5,6737.7-2013.1z"/></g></g>
</svg>