<svg version="1.1" xmlns="http://www.w3.org/2000/svg" xmlns:xlink="http://www.w3.org/1999/xlink" x="0px" y="0px" viewBox="0 0 1000 1000" enable-background="new 0 0 1000 1000" xml:space="preserve">
<g><path d="M285.6,285.6c0-84.6,68.6-153.2,153.2-153.2h122.5c84.5,0,153.1,68.6,153.1,153.2v107.2c0-50.7-41.2-91.9-91.9-91.9h-91.8c-33.9,0-61.3-27.5-61.3-61.3c0-8.5-6.8-15.3-15.3-15.3c-8.5,0-15.3,6.8-15.3,15.3c0,33.8-27.4,61.3-61.3,61.3c-50.6,0-91.8,41.2-91.8,91.9L285.6,285.6L285.6,285.6z M316.3,530.6v-15.3c0-8.5-6.9-15.3-15.4-15.3h-15.3c-8.4,0-15.3-7-15.3-15.4v-30.5c0-8.5,6.8-15.4,15.3-15.4H301c8.5,0,15.4-6.9,15.4-15.4v-30.5c0-33.9,27.4-61.3,61.2-61.3c32,0,60.1-16.4,76.7-41.2c16.4,24.7,44.6,41.2,76.5,41.2h91.8c33.8,0,61.3,27.4,61.3,61.3v30.5c0,8.5,6.9,15.4,15.3,15.4h15.3c8.5,0,15.3,6.9,15.3,15.4v30.5c0,8.5-6.8,15.4-15.3,15.4h-15.3c-8.5,0-15.3,6.8-15.3,15.3v15.3c0,101.5-82.3,183.8-183.7,183.8C398.6,714.4,316.3,632.1,316.3,530.6 M500.1,745c43.7,0,84.2-13.1,118.1-35.6c25.4,4.4,50.5,9.6,74.9,16.7c-49.8,49.3-117.8,80.2-193.4,80.2c-75.5,0-143.5-30.8-193.3-80c24.7-7.1,49.9-12.5,75.6-16.8C415.8,731.9,456.3,745,500.1,745 M963.1,833.2l0.2-0.3c-89.5-72.7-196.6-124.5-313.7-148.8c40-38.9,64.8-93.2,64.8-153.5c25.4,0,46-20.6,46-46v-30.5c0-13.6-6-25.6-15.3-34.1V285.6c0-101.5-82.3-183.8-183.8-183.8H438.8c-101.5,0-183.7,82.3-183.7,183.8v134.3c-9.4,8.5-15.4,20.5-15.4,34.1v30.5c0,25.4,20.6,46,45.9,46c0,60.3,24.9,114.5,64.9,153.5c-117.1,24.3-224.2,76.1-313.7,148.8l0.2,0.3c-16.7,16.5-27,39.5-27,64.9h30.7c0-16.9,6.8-32.2,18-43.3l-0.1-0.1c63.6-51.2,136.2-91.3,215.1-118C329.6,798,410,836.9,499.7,836.9c89.7,0,170.2-38.9,226.1-100.5c79.2,26.9,152.1,67,215.8,118.4l-0.1,0.1c11.1,11.1,18,26.4,18,43.3H990C990,872.7,979.7,849.7,963.1,833.2 M385.8,436.6c7.3,3.8,16.4,1,20.6-6.1c0.4-0.7,4.5-7.2,17.1-7.2c12.4,0,16.7,6.7,17,7.1c2.7,5.3,8.1,8.3,13.7,8.3c2.3,0,4.7-0.5,6.9-1.7c7.5-3.9,10.5-13.1,6.7-20.7c-4.6-8.7-19-23.6-44.2-23.6c-25.9,0-40.1,15-44.4,23.9C375.5,424.2,378.5,432.7,385.8,436.6 M539,436.6c7.2,3.8,16.4,1,20.6-6.1c0.4-0.7,4.5-7.2,17.1-7.2c12.4,0,16.8,6.7,17,7.1c2.8,5.3,8.1,8.3,13.6,8.3c2.4,0,4.8-0.5,7-1.7c7.6-3.9,10.5-13.1,6.7-20.7c-4.5-8.7-19-23.6-44.2-23.6c-25.9,0-40,15-44.4,23.9C528.6,424.2,531.7,432.7,539,436.6"/></g>
</svg>