<svg version="1.1" xmlns="http://www.w3.org/2000/svg" xmlns:xlink="http://www.w3.org/1999/xlink" x="0px" y="0px" viewBox="0 0 1000 1000" enable-background="new 0 0 1000 1000" xml:space="preserve">
<g><g transform="translate(0.000000,512.000000) scale(0.100000,-0.100000)"><path d="M4622,5014.6c-981.4-82.4-1947.5-465.8-2687.4-1061.9c-218.5-176.3-542.5-496.5-728.4-720.7C721.2,2643.5,343.6,1861.5,196,1136.9c-82.4-414-97.8-563.5-95.8-1025.5c0-358.5,7.7-490.7,42.2-709.2c84.3-536.7,216.6-954.6,454.3-1437.6c251.1-511.8,515.6-881.7,929.7-1295.8c402.5-404.5,745.6-657.5,1217.2-900.9c1027.4-529.1,2196.7-684.3,3306.5-439c1592.9,354.6,2923.2,1493.2,3519.3,3019C9772.5-1128.8,9876-626.6,9897.1-41.9c38.3,1119.4-302.9,2200.5-981.4,3105.3c-933.5,1244-2421,1980.1-3958.3,1960.9C4815.6,5022.3,4664.1,5018.5,4622,5014.6z M5637.9,4675.4c994.8-147.6,1909.2-605.7,2608.8-1307.3c828.1-831.9,1293.9-1897.7,1341.8-3074.6c44.1-1037-277.9-2075.9-902.8-2911.7c-130.3-174.4-364.2-444.7-394.9-458.1c-7.7-3.8-63.3,32.6-120.8,80.5c-281.8,228.1-613.4,394.9-1314.9,657.5c-423.6,157.2-615.3,256.9-739.9,379.5c-132.3,130.3-151.4,210.8-151.4,632.6v325.9l128.4,193.6c226.2,337.4,287.5,515.6,314.3,887.5l13.4,180.2l111.2,105.4c61.3,57.5,128.4,139.9,149.5,184c57.5,116.9,101.6,343.1,103.5,534.8c3.8,164.8,1.9,172.5-49.8,216.6c-30.7,24.9-78.6,46-109.3,46h-53.7l-9.6,389.1c-5.7,279.9-17.3,419.8-40.3,502.2c-157.2,569.3-498.4,914.3-1037,1048.5c-220.4,53.7-722.7,59.4-941.2,9.6c-488.8-111.2-818.5-383.4-1000.6-824.2c-95.8-231.9-122.7-400.6-120.8-784l1.9-341.2h-42.2c-184-1.9-224.3-132.3-159.1-508c42.2-233.9,90.1-333.5,220.4-458.1l111.2-107.3l23-205.1c40.3-394.9,92-536.7,314.4-879.8c122.7-189.8,122.7-189.8,134.2-362.3c15.3-203.2-13.4-555.9-51.7-646c-76.7-182.1-314.4-325.9-904.7-542.4c-607.6-226.2-962.3-402.5-1232.5-617.2c-69-57.5-132.3-99.7-139.9-97.7c-28.8,11.5-254.9,277.9-391,458.1C422.2-1437.4,163.4,119.1,617.7,1526C1075.8,2940.6,2178,4040.9,3594.5,4499c322,105.4,594.2,159.1,1056.2,210.8C4790.6,4725.2,5453.9,4702.2,5637.9,4675.4z"/></g></g>
</svg>