<svg version="1.1" xmlns="http://www.w3.org/2000/svg" xmlns:xlink="http://www.w3.org/1999/xlink" x="0px" y="0px" viewBox="0 0 1000 1000" enable-background="new 0 0 1000 1000" xml:space="preserve">
<g><path d="M688.5,990c-118.9,0-123.9-5-128.8-9.9c-4.6-4.7-9.7-9.9-63.7-513.9c-48.6,501.4-49.9,505.6-50.5,507.4c-4.1,12.7-4.9,15.4-135.3,15.4c-114,0-115.6-3-120.7-12.9c-6.2-12-1.2-444-1.2-448.4C191.8,231.5,199,65.8,209.5,35c0.9-2.5,3.4-10.1,10.9-13.5c17.9-8.3,74-11.5,200-11.5l79.2,0.1l80.8-0.1c155.1,0,191,4.5,202.9,12.9c9.7,6.9,17.4,12.3,25.3,481c3.2,189.4,5.9,460.3,4.7,467.5C810.9,986.1,810.3,990,688.5,990z M584.4,955.2c16.2,1.5,54.4,2.9,104.1,2.9c44.8,0,77.9-1.1,93.7-2.4c1-105.3-8.3-830.7-21-907.8c-17.7-3.8-78.6-6-180.7-6l-80.8,0.1l-79.2-0.1c-101.1,0-162.1,2.4-181.8,7c-17.4,72.4-23.7,796.5-19.9,906.2c14.2,1,43.6,1.9,91.4,1.9c49,0,88-1,105.7-2.2c7.5-70.2,43.9-444.4,63.6-648.2c0.8-8.2,7.6-14.4,15.8-14.4c0,0,0,0,0.1,0c8.2,0,15,6.2,15.9,14.3C536.1,542.7,574.5,894.4,584.4,955.2z"/><path d="M229.4,201.4c-8.7,0-17.2-1.7-25.4-5.3c-4-1.8-5.8-6.5-4-10.6c1.8-4,6.5-5.8,10.6-4c61.3,27.7,155-95.6,155.9-96.8c2.6-3.5,7.7-4.2,11.2-1.6c3.5,2.7,4.2,7.6,1.6,11.2C375.5,99.1,297.8,201.4,229.4,201.4z"/><path d="M764.7,201.4c-68.4,0-146.1-102.2-149.8-107.1c-2.6-3.5-1.9-8.5,1.6-11.2c3.5-2.7,8.5-1.9,11.2,1.6c0.9,1.2,94.5,124.5,155.9,96.8c4-1.9,8.7,0,10.6,4c1.8,4,0,8.7-4,10.6C781.9,199.7,773.4,201.4,764.7,201.4z"/><path d="M485.6,308.2L482,24.9l16-0.2l3.6,283.3L485.6,308.2z"/><path d="M532.4,58.8c0,7.1-5.8,12.9-12.9,12.9l0,0c-7.1,0-12.8-5.8-12.8-12.9l0,0c0-7.1,5.7-12.8,12.8-12.8l0,0C526.6,46,532.4,51.7,532.4,58.8L532.4,58.8z"/><path d="M218.1,76.6H776v16H218.1V76.6L218.1,76.6z"/><path d="M319,92.6c-4.4,0-8-3.6-8-8V34.8c0-4.4,3.6-8,8-8s8,3.6,8,8v49.8C327,89,323.4,92.6,319,92.6z"/><path d="M664.3,92.6c-4.4,0-8-3.6-8-8V34.8c0-4.4,3.6-8,8-8c4.4,0,8,3.6,8,8v49.8C672.2,89,668.7,92.6,664.3,92.6z"/></g>
</svg>