<svg version="1.1" xmlns="http://www.w3.org/2000/svg" xmlns:xlink="http://www.w3.org/1999/xlink" x="0px" y="0px" viewBox="0 0 1000 1000" enable-background="new 0 0 1000 1000" xml:space="preserve">
<g><g transform="translate(0.000000,511.000000) scale(0.100000,-0.100000)"><path d="M3621.8,3716.9c-21.4-5.8-183.1-52.6-360.4-107.1c-613.6-183.1-1127.8-401.3-1293.4-547.4c-46.7-40.9-155.8-212.3-315.6-490.9C943.4,1322.9,631.8,520.4,390.2-695.1c-120.8-596-243.5-1501.8-276.6-2014.1L100-2921.6l89.6-99.3c50.6-54.6,142.2-126.6,212.3-163.6c103.2-56.5,148-68.2,284.4-74c89.6-5.8,229.9,1.9,311.7,15.6c167.5,27.3,393.5,91.6,393.5,113c0,44.8,146.1,878.5,214.3,1215.5c153.9,785,300,1299.2,434.4,1540.8c39,68.2,181.2,290.3,317.5,492.8C2644,545.7,2663.4,573,2679,574.9c5.8,0,17.5-194.8,25.3-432.4c44.8-1482.3,122.7-2986.1,159.7-3093.3c13.6-42.9,315.6-227.9,498.7-305.8c808.4-340.9,2245.9-335,3190.7,13.6c194.8,72.1,568.8,249.3,590.2,280.5c17.5,21.4,0,2505-23.4,3362.1c-5.8,263-7.8,481.1-3.9,487c9.7,13.6,492.8-490.9,714.9-748c208.4-241.5,284.4-379.8,376-689.5c118.8-399.3,263-1153.2,362.3-1883.6c27.3-202.6,52.6-372,58.4-375.9c33.1-33.1,307.8-85.7,487-95.5c270.8-13.6,377.9,13.6,584.4,151.9c222.1,150,214.3,128.6,187,570.7c-56.5,937-179.2,1817.4-346.7,2485.5c-183.1,744.1-428.5,1285.6-892.1,1977.1c-231.8,346.7-502.6,697.3-654.5,849.3c-161.7,165.6-617.5,346.7-1287.6,514.2c-362.3,91.6-424.6,101.3-424.6,68.2c0-9.7-11.7-19.5-25.3-19.5c-15.6,0-40.9-50.6-60.4-120.8c-17.5-68.2-66.2-188.9-105.2-268.8c-89.6-183.1-309.7-411-485-502.6C5164.6,2569.6,4529.5,2626.1,4177,2926c-167.5,144.1-319.5,414.9-370.1,654.5c-13.6,72.1-31.2,111-50.6,111c-15.6,0-27.3,9.7-27.3,19.5C3728.9,3730.5,3690,3732.5,3621.8,3716.9z M6300.2,3422.8c-76-231.8-171.4-391.5-340.9-561c-116.9-118.8-192.8-175.3-301.9-227.9c-237.7-116.9-358.4-140.3-691.5-138.3c-263,0-307.8,5.8-448,52.6c-315.6,105.2-553.2,300-695.4,568.8c-74,144.1-153.9,375.9-150,446.1c0,21.4,17.5-15.6,39-85.7c175.3-601.9,631.1-936.9,1273.9-936.9c564.9,0,993.4,261,1229.1,748c35.1,74,74,177.3,89.6,233.8c13.6,54.6,27.3,83.8,31.2,66.2C6339.1,3568.9,6323.6,3494.8,6300.2,3422.8z M3563.4,3492.9c7.8-46.7,39-151.9,70.1-235.7c218.2-601.9,740.2-921.4,1445.3-884.4c128.6,7.8,276.6,29.2,364.3,52.6c498.7,142.2,868.8,531.8,993.4,1048c13.6,60.4,33.1,101.3,50.6,101.3c54.6,0,572.7-142.2,824-226c342.8-113,555.1-226,644.7-340.9c37-48.7,140.3-177.3,225.9-284.4c561-695.4,966.2-1457,1184.3-2220.6c169.5-592.2,331.1-1609,391.5-2481.6l13.6-187l-83.8-70.1c-159.7-130.5-278.6-175.3-477.2-185c-163.6-7.8-270.8,5.8-459.7,56.5c-60.4,15.6-74,29.2-81.8,81.8c-155.8,966.2-214.3,1264.2-335,1702.5c-134.4,494.8-233.8,637-938.9,1349.9L6980,1188.5l11.7-379.8c29.2-983.7,48.7-2129.1,48.7-2877.1v-824l-42.9-27.3c-70.1-44.8-358.4-165.6-568.8-237.6c-461.7-157.8-936.9-227.9-1531.1-227.9c-771.4,0-1316.8,118.8-1774.5,387.6c-175.3,101.3-159.7,60.4-192.8,562.9C2901.1-1951.5,2794,625.6,2794,896.3c0,52.6-5.8,48.7-91.6-68.2c-206.5-284.4-726.6-1073.3-790.8-1199.9c-85.7-173.3-153.9-374-249.3-744.1c-72.1-282.4-208.4-937-280.5-1351.9l-33.1-187l-159.7-44.8c-116.9-33.1-212.3-44.8-372.1-44.8c-189-1.9-224,3.9-305.8,44.8c-48.7,25.3-128.6,87.7-177.3,136.3l-85.7,89.6l35.1,311.7C440.9-784.7,680.5,239.9,1050.6,1120.3c245.4,584.4,847.3,1710.3,991.5,1856.4c81.8,81.8,329.2,206.5,625.3,317.5c163.6,62.3,827.9,274.7,870.7,278.5C3543.9,3574.7,3555.6,3537.7,3563.4,3492.9z M9712.9-2592.4c-46.8-44.8-134.4-107.1-194.8-136.3c-97.4-48.7-136.4-56.5-305.8-62.3c-136.3-3.9-237.6,5.8-340.9,29.2l-146.1,35.1l-13.6,116.9c-7.8,62.3-11.7,116.9-7.8,120.8c3.9,5.8,74-5.8,155.8-21.4c187-39,444.1-39,572.7-1.9c54.5,17.5,153.9,66.2,222.1,113l122.7,81.8l11.7-97.4C9798.6-2510.6,9796.7-2514.5,9712.9-2592.4z M366.9-2744.3c220.1-150,420.8-163.6,899.9-60.4l60.4,13.6l-21.4-132.5l-21.4-134.4l-126.6-37c-91.6-25.3-194.8-37-370.1-39c-233.8-1.9-247.4,0-337,52.6C398-3050.1,324-2991.7,285-2950.8c-68.2,68.2-72.1,77.9-66.2,183.1c3.9,60.4,11.7,109.1,15.6,109.1C238.3-2658.6,298.7-2697.6,366.9-2744.3z"/></g></g>
</svg>