<svg version="1.1" xmlns="http://www.w3.org/2000/svg" xmlns:xlink="http://www.w3.org/1999/xlink" x="0px" y="0px" viewBox="0 0 1000 1000" enable-background="new 0 0 1000 1000" xml:space="preserve">
<g><g transform="translate(0.000000,511.000000) scale(0.100000,-0.100000)"><path d="M2345.7,4608.7c-7.7-5.8-13.4-472.5-13.4-1035.3V2549.7l-1114-3240.3C605.5-2473.1,102.3-3944.3,100.4-3961.6c-7.7-36.5,109.5-69.1,522.4-144.1c1788.2-324.6,5287.8-389.9,7682.9-144.1c658.8,67.2,1550,213.2,1594.2,261.2c7.7,7.7-489.8,1480.9-1106.3,3271L7673.8,2538.1l-5.8,1037.2l-5.8,1037.2l-2652.5,5.8C3551.9,4620.2,2351.4,4616.4,2345.7,4608.7z M7249.3,3997.9v-201.7h-635.8c-428.3,0-647.3-7.7-676.1-21.1c-73-36.5-109.5-98-109.5-186.3c0-67.2,11.5-94.1,55.7-140.2l55.7-55.7h655h655v-413v-413H5002.1H2754.8v201.7v201.7h520.5c582,0,622.3,7.7,678,124.8c38.4,78.8,38.4,94.1,0,172.9c-55.7,117.2-96,124.8-678,124.8h-520.5v403.3v403.4h2247.3h2247.3V3997.9z M8376.8-763.6C8928-2369.3,9377.5-3685,9373.6-3688.9c-25-25-1365.6-195.9-1382.9-176.7c-3.8,3.8-172.9,691.5-378.4,1525.1C7278.1-976.8,7235.9-817.4,7187.8-769.4c-101.8,105.6-297.7,49.9-334.2-94.1c-9.6-38.4,90.3-474.4,353.4-1542.3c199.8-820.1,363-1492.4,361.1-1494.3c-21.1-23-1446.3-82.6-1964.9-82.6h-389.9v1334.9c0,1463.6,1.9,1436.7-113.3,1496.2c-73,38.4-122.9,38.4-195.9,0c-115.2-59.5-113.3-32.6-113.3-1496.2v-1334.9h-388c-522.4,0-1945.7,59.5-1966.8,82.6c-1.9,1.9,159.4,668.4,359.2,1482.8c199.8,812.5,363,1492.4,363,1511.6c0,163.3-226.6,253.5-341.9,136.4c-48-48-90.3-207.4-424.5-1571.2c-205.5-833.6-374.5-1521.2-378.4-1525.1c-17.3-19.2-1357.9,151.7-1384.8,176.7c-5.8,5.8,1953.4,5719.9,1991.8,5810.2l19.2,42.3l2366.3-3.8l2368.3-5.8L8376.8-763.6z"/></g></g>
</svg>