<svg version="1.1" xmlns="http://www.w3.org/2000/svg" xmlns:xlink="http://www.w3.org/1999/xlink" x="0px" y="0px" viewBox="0 0 1000 1000" enable-background="new 0 0 1000 1000" xml:space="preserve">
<g><g transform="translate(0.000000,512.000000) scale(0.100000,-0.100000)"><path d="M3293.7,4962.5c-1035.7-289.1-1803.4-645.2-2027.4-941.9c-336.9-444.2-606.9-1545-739-2998c-34.5-390.5-28.7-413.5,151.2-495.8C1065.3,343,1689.4,168.8,2078,136.2l57.4-5.7l9.6-2193.9c9.6-2153.7,9.6-2195.8,47.9-2238c42.1-47.9,105.3-76.6,335-157c1043.4-361.8,3024.8-428.8,4384-147.4c436.5,91.9,828.9,227.8,901.7,315.9c23,28.7,28.7,358,36.4,2226.5l9.6,2192l189.5,24.9c356.1,44,932.3,214.4,1267.3,371.4c143.6,68.9,183.8,134,170.4,277.6c-5.7,51.7-23,231.7-38.3,400.1c-128.3,1334.4-398.2,2391.1-719.8,2818c-222.1,296.7-1016.6,666.2-2008.2,934.2c-289.1,78.5-250.8,78.5-737.1-5.7c-963-164.6-1020.4-164.6-2025.5,7.7c-210.6,36.4-400.1,65.1-423.1,63.2C3511.9,5018,3404.7,4993.1,3293.7,4962.5z M3464,4474.3c26.8-47.9,109.1-143.6,183.8-214.4c593.5-553.3,1811-616.4,2540.4-132.1c134,90,289.1,247,344.6,350.4c24.9,45.9,51.7,84.2,59.3,84.2c32.6,0,409.7-114.9,664.3-201c649-224,1060.6-446.1,1196.5-652.8c166.6-250.8,336.9-832.8,457.6-1560.3c99.5-610.7,174.2-1257.8,145.5-1286.5c-7.7-9.6-135.9-59.3-281.4-109.1c-269.9-93.8-610.7-178-817.5-202.9l-111-13.4l9.6,649c7.7,564.8,13.4,670.1,47.9,815.5c53.6,222.1,139.8,425,233.6,541.8c114.9,143.6,139.7,208.7,114.9,289.1c-28.7,88.1-103.4,141.7-193.3,141.7c-59.4,0-91.9-15.3-151.3-68.9c-160.8-145.5-325.5-484.3-413.5-851.9c-32.5-132.1-34.5-348.4-45.9-3118.6l-9.6-2975l-172.3-53.6c-582-181.9-1326.7-269.9-2268.6-269.9c-938.1,0-1686.6,88.1-2268.6,269.9l-172.3,53.6l-11.5,2975c-11.5,3214.3-3.8,3024.8-105.3,3340.7c-88.1,269.9-231.7,524.6-363.7,639.4c-86.1,76.6-189.5,80.4-271.8,11.5c-107.2-90-97.6-197.2,26.8-342.7c143.6-166.6,254.6-480.5,294.8-825.1c9.6-93.8,19.1-407.8,19.1-696.8V538.2l-109.1,13.4c-204.8,23-547.5,107.2-815.5,201c-145.5,49.8-273.8,99.6-283.3,109.1c-24.9,24.9,57.4,760,147.4,1288.4c126.4,758.1,285.2,1299.9,455.6,1556.4c170.4,254.6,769.6,539.9,1753.6,832.8C3402.8,4571.9,3416.2,4566.2,3464,4474.3z M4289.2,4487.7c400.1-63.2,649-84.2,842.3-70.8c157,11.5,739,90,880.6,118.7l47.9,11.5l-47.9-40.2c-76.6-65.1-340.8-187.6-493.9-229.7c-446-122.5-938.1-80.4-1334.4,112.9c-84.2,42.1-174.2,93.8-201,114.9l-47.9,40.2l57.4-9.6C4025,4529.8,4157.1,4506.8,4289.2,4487.7z"/></g></g>
</svg>