<svg version="1.1" xmlns="http://www.w3.org/2000/svg" xmlns:xlink="http://www.w3.org/1999/xlink" x="0px" y="0px" viewBox="0 0 1000 1000" enable-background="new 0 0 1000 1000" xml:space="preserve">
<g><g><g><g><path d="M859.1,418.5c-62.2-23.1-81.7-112.4-87.1-183.2c-6.1-79.6,4-154.5,4.1-155.2c0.8-5.8-2.5-11.5-8-13.6L626.1,10.9c-3.7-1.4-7.8-1.1-11.2,0.9c-3.4,2-5.7,5.5-6.1,9.4c-0.1,0.5-1,7.6-2.9,20C579.8,50.8,541,56.5,500,56.5c-41,0-79.8-5.7-105.9-15.4c-1.9-12.5-2.8-19.6-2.9-20c-0.5-3.9-2.8-7.4-6.1-9.4c-3.4-2-7.5-2.4-11.2-0.9L231.8,66.5c-5.5,2.2-8.8,7.8-8,13.6c0.1,0.7,10.2,75.6,4.1,155.2c-5.4,70.8-24.9,160.1-87.1,183.2c-6.1,2.3-9.5,8.7-7.9,15c0.6,2.3,57,235,31.3,449.5c-0.7,6,2.8,11.6,8.5,13.6l268,92.7c1.4,0.5,2.8,0.7,4.2,0.7c3.8,0,7.4-1.7,9.9-4.7l45.2-55.1l45.2,55.1c2.5,3,6.1,4.7,9.9,4.7c1.4,0,2.8-0.2,4.2-0.7l268-92.7c5.7-2,9.2-7.6,8.5-13.6c-25.6-214.4,30.7-447.2,31.3-449.5C868.6,427.3,865.2,420.8,859.1,418.5z M500,82.1c38,0,73.7-4.5,101.4-12.6c-13.1,79.3-44.7,242.6-101.5,387.1c-56.8-144.3-88.3-307.8-101.4-387.1C426.3,77.6,462,82.1,500,82.1z M440.7,962.3l-249.9-86.4C211.2,686,170.7,485.6,160.2,438c116.6-57.2,96.2-298.1,90.2-351.4l117.8-46.1c8.8,59.7,43.9,273.4,118,449.7c-7.4,17.2-15.3,34-23.5,50.3c-0.9,1.8-1.4,3.8-1.4,5.8v332.1c0,2.9,1,5.8,2.9,8.1l19.3,23.6L440.7,962.3z M809.2,875.8l-249.9,86.4l-72.5-88.4V549.4c8.8-17.5,17.1-35.6,25-54.1c0-0.1,0.1-0.2,0.1-0.2c75.5-177.7,111.1-394.3,120-454.5l117.8,46.1c-6,53.2-26.4,294.2,90.2,351.4C829.3,485.6,788.8,686,809.2,875.8z"/><g><g><path d="M392.2,780.2c-7.1,0-12.8-5.7-12.8-12.8v-16.8l-137.8-23.8v12.4c0,7.1-5.7,12.8-12.8,12.8s-12.8-5.7-12.8-12.8v-27.5c0-3.8,1.7-7.3,4.5-9.8c2.9-2.4,6.7-3.5,10.4-2.8l163.4,28.2c6.1,1.1,10.6,6.4,10.6,12.6v27.5C404.9,774.5,399.2,780.2,392.2,780.2z"/></g><g><path d="M607.9,780.2c-7.1,0-12.8-5.7-12.8-12.8v-27.5c0-6.2,4.5-11.5,10.6-12.6l163.4-28.2c3.7-0.6,7.5,0.4,10.4,2.8c2.9,2.4,4.5,6,4.5,9.8v27.5c0,7.1-5.7,12.8-12.8,12.8s-12.8-5.7-12.8-12.8v-12.4l-137.8,23.8v16.8C620.6,774.5,614.9,780.2,607.9,780.2z"/></g></g></g><g><g><path d="M511.5,592c-3.4,0-6.6-1.4-9-3.8c-2.4-2.4-3.7-5.7-3.7-9c0-3.4,1.4-6.7,3.7-9c2.4-2.4,5.7-3.7,9-3.7s6.7,1.4,9,3.7c2.4,2.4,3.7,5.7,3.7,9c0,3.3-1.4,6.6-3.7,9C518.2,590.6,514.9,592,511.5,592z"/></g><g><path d="M511.5,675.2c-3.4,0-6.6-1.4-9-3.7c-2.4-2.4-3.8-5.7-3.8-9c0-3.3,1.4-6.6,3.8-9c2.4-2.4,5.6-3.8,9-3.8s6.7,1.4,9,3.8c2.4,2.4,3.7,5.7,3.7,9c0,3.4-1.4,6.7-3.7,9C518.2,673.8,514.9,675.2,511.5,675.2z"/></g><g><path d="M511.5,758.3c-3.4,0-6.7-1.4-9-3.7c-2.4-2.4-3.8-5.7-3.8-9c0-3.3,1.4-6.6,3.8-9c2.3-2.4,5.6-3.8,9-3.8s6.6,1.4,9,3.8c2.4,2.4,3.7,5.7,3.7,9c0,3.4-1.4,6.7-3.7,9C518.2,757,514.9,758.3,511.5,758.3z"/></g><g><path d="M511.5,841.5c-3.4,0-6.7-1.4-9-3.7c-2.4-2.4-3.8-5.7-3.8-9c0-3.4,1.4-6.7,3.8-9c2.4-2.4,5.6-3.7,9-3.7s6.6,1.4,9,3.7c2.4,2.4,3.7,5.7,3.7,9c0,3.4-1.4,6.7-3.7,9C518.2,840.2,514.9,841.5,511.5,841.5z"/></g></g></g></g><g></g><g></g><g></g><g></g><g></g><g></g><g></g><g></g><g></g><g></g><g></g><g></g><g></g><g></g><g></g></g>
</svg>